<?xml version="1.0" encoding="utf-8"?>
<!-- Generator: Adobe Illustrator 19.0.0, SVG Export Plug-In . SVG Version: 6.00 Build 0)  -->
<svg version="1.1" id="Layer_1" xmlns="http://www.w3.org/2000/svg" xmlns:xlink="http://www.w3.org/1999/xlink" x="0px" y="0px"
	 viewBox="-85 87 128 128" style="enable-background:new -85 87 128 128;" xml:space="preserve">
<style type="text/css">
	.st0{fill:#5B4282;}
</style>
<path class="st0" d="M-9.3,152.6c-2.3-0.8-5.7-0.6-10.1-0.6H-37v23h18.8c2.9,0,5-0.3,6.2-0.5c2.1-0.4,3.9-1.1,5.3-2
	c1.4-0.9,2.6-2.2,3.5-3.9c0.9-1.7,1.4-3.6,1.4-5.8c0-2.6-0.7-4.5-2-6.4C-5.1,154.4-7,153.4-9.3,152.6z M-11.7,142.1
	c2.3-0.7,4.1-1.9,5.2-3.5c1.2-1.6,1.8-3.6,1.8-6c0-2.3-0.5-4.3-1.6-6.1c-1.1-1.7-2.7-2.4-4.7-3.1c-2-0.6-5.5-0.4-10.5-0.4H-37v20
	h16.6C-16.4,143-13.5,142.6-11.7,142.1z M41,105.6C41,96.4,33.6,89,24.4,89h-91.8c-9.2,0-16.6,7.4-16.6,16.6v91.8
	c0,9.2,7.4,16.6,16.6,16.6h91.8c9.2,0,16.6-7.4,16.6-16.6V105.6z M5.6,171.7c-1.4,2.8-3,4.9-5.1,6.4c-2,1.5-4.5,2.8-7.5,3.5
	c-3,0.8-6.7,1.3-11.1,1.3H-46v-69h27.4c5.3,0,9.5,0.6,12.7,2c3.2,1.4,5.7,3.5,7.5,6.4c1.8,2.9,2.7,5.9,2.7,9.1
	c0,2.9-0.8,5.7-2.4,8.3c-1.6,2.6-4,4.7-7.2,6.3c4.2,1.2,7.4,3.3,9.6,6.2c2.2,2.9,3.4,6.4,3.4,10.4C7.6,166,6.9,169,5.6,171.7z"/>
</svg>
