<?xml version="1.0" encoding="utf-8"?>
<!-- Generator: Adobe Illustrator 19.0.0, SVG Export Plug-In . SVG Version: 6.00 Build 0)  -->
<svg version="1.1" id="Layer_1" xmlns="http://www.w3.org/2000/svg" xmlns:xlink="http://www.w3.org/1999/xlink" x="0px" y="0px"
	 viewBox="-85 87 128 128" style="enable-background:new -85 87 128 128;" xml:space="preserve">
<style type="text/css">
	.st0{fill:#505050;}
</style>
<path class="st0" d="M-76.2,88l10.1,112.9l45.1,12.6l45.2-12.6L34.2,88C34.2,88-76.2,88-76.2,88z M13.4,113.9L10,151.5l0,0.2l0,0.5
	v0l-2.4,26.3l-0.3,2.3l-28.4,7.8v0l0,0l-28.3-7.9l-1.9-21.7h13.9l1,11.1l15.4,4.2l0,0v0l15.4-4.2l1.6-18h-32.3l-0.3-3l-0.6-7.1
	l-0.3-3.8h34.7l1.3-14h-52.9l-0.3-3l-0.6-7.1l-0.3-3.8h69.3C13.7,110,13.4,113.9,13.4,113.9z"/>
</svg>
