<?xml version="1.0" encoding="utf-8"?>
<!-- Generator: Adobe Illustrator 19.0.0, SVG Export Plug-In . SVG Version: 6.00 Build 0)  -->
<svg version="1.1" id="Layer_1" xmlns="http://www.w3.org/2000/svg" xmlns:xlink="http://www.w3.org/1999/xlink" x="0px" y="0px"
	 viewBox="-85 87 128 128" style="enable-background:new -85 87 128 128;" xml:space="preserve">
<style type="text/css">
	.st0{fill:#505050;}
</style>
<path class="st0" d="M-76,90.5l10,112.1l44.9,12.4l45-12.4L34,90.5H-76z M13.2,115.3l-0.6,7.2l-0.3,3.3h-52.7l1.3,14H11l-0.3,3.5
	l-3.2,36.1l-0.2,2.3l-28.2,7.7l0,0l0,0l-28.2-7.4l-1.9-21.2h13.8l1,10.9l15.2,4.1l0,0l0,0l15.4-4.1l1.6-17.9h-47.7l-3.4-38.1
	l-0.3-3.9h68.9L13.2,115.3z"/>
</svg>
