<?xml version="1.0" encoding="utf-8"?>
<!-- Generator: Adobe Illustrator 19.0.0, SVG Export Plug-In . SVG Version: 6.00 Build 0)  -->
<svg version="1.1" id="Layer_1" xmlns="http://www.w3.org/2000/svg" xmlns:xlink="http://www.w3.org/1999/xlink" x="0px" y="0px"
	 viewBox="-85 87 128 128" style="enable-background:new -85 87 128 128;" xml:space="preserve">
<style type="text/css">
	.st0{fill:#505050;}
</style>
<path class="st0" d="M-76,89l10,112.1l44.9,12.4l45-12.4L34,89C34,89-76,89-76,89z M13.2,115.5l-0.6,7.2l-0.3,3.3h-52.7l1.3,14H11
	l-0.3,3.5l-3.2,36.1l-0.2,2.3l-28.2,7.7v0l0,0l-28.2-7.4l-1.9-21.2h13.8l1,10.9L-21,176h0v-0.5l15.4-3.9L-4,154h-47.7l-3.4-38.1
	l-0.3-3.9h68.9C13.5,112,13.2,115.5,13.2,115.5z"/>
</svg>
