<?xml version="1.0" encoding="utf-8"?>
<!-- Generator: Adobe Illustrator 19.0.0, SVG Export Plug-In . SVG Version: 6.00 Build 0)  -->
<svg version="1.1" id="Layer_1" xmlns="http://www.w3.org/2000/svg" xmlns:xlink="http://www.w3.org/1999/xlink" x="0px" y="0px"
	 viewBox="-85 87 128 128" style="enable-background:new -85 87 128 128;" xml:space="preserve">
<style type="text/css">
	.st0{fill:#505050;}
</style>
<path class="st0" d="M-84,88v125.8c1,0.1,1,0.2,1.4,0.2c36.3,0,72.7,0,108.9,0c5,0,9.9,0,14.9,0c0.3,0,0.9-0.2,0.9-0.2
	c0-42,0-83.8,0-125.8H-84z M30,150.9v48.6c0,1.7-0.3,1.5-1.9,1.5h-97.3c-1.6,0-1.8,0.2-1.8-1.5v-97.2c0-1.7,0.1-2.2,1.9-2.2H28
	c1.8,0,2,0.6,2,2.4C30,102.4,30,150.9,30,150.9z M-20.6,127.4c-0.2-0.7-0.6-0.7-1.2-0.7c-3.1,0-6.2,0.1-9.3,0c-1,0-1.4,0.3-1.7,1.2
	c-4.4,13.8-8.8,27.6-13.2,41.3c-0.7,2.2-1.4,4.5-2.2,6.9c2.9,0,5.6,0,8.2,0c0.9,0,1.3-0.3,1.5-1.1c1.1-3.9,2.4-7.8,3.5-11.7
	c0.3-0.9,0.7-1.2,1.6-1.2c4.4,0.1,8.8,0.1,13.3,0c0.9,0,1.2,0.3,1.5,1.1c1.2,3.9,2.5,7.9,3.7,11.8c0.3,0.8,0.6,1.1,1.5,1.1
	c1.3-0.1,2.6-0.1,3.9-0.1h4.6l0-0.3C-10.1,159.6-15.4,143.5-20.6,127.4z M-33,155c2-7,4.1-13.8,6.1-20.6c2.1,6.8,4.1,13.6,6.3,20.6
	C-20.7,155-33,155-33,155z M-3,176H7v-36H-3V176z M2.1,125.6c-3,0-5.2,2.1-5.1,4.9c0,2.8,2.1,4.9,5.1,4.9c3.1,0,5.2-2,5.2-4.9
	C7.2,127.6,5.1,125.6,2.1,125.6z"/>
</svg>
