<?xml version="1.0" encoding="utf-8"?>
<!-- Generator: Adobe Illustrator 19.0.0, SVG Export Plug-In . SVG Version: 6.00 Build 0)  -->
<svg version="1.1" id="Layer_1" xmlns="http://www.w3.org/2000/svg" xmlns:xlink="http://www.w3.org/1999/xlink" x="0px" y="0px"
	 viewBox="-85 87 128 128" style="enable-background:new -85 87 128 128;" xml:space="preserve">
<style type="text/css">
	.st0{fill:#505050;}
</style>
<g>
	<path class="st0" d="M35.3,152.4c1.2,0,2.1-0.9,2.1-2.1c0-0.5-0.2-1-0.5-1.3c-0.1-0.2-28-25.8-28-25.8l24.6,28.1
		C33.8,152,34.5,152.4,35.3,152.4z M41,166.7l-0.2-0.2L-20,111l55.7,60.6l0.2,0.2c0.6,0.6,1.5,1,2.5,1c2,0,3.6-1.6,3.6-3.6
		C42,168.3,41.6,167.4,41,166.7z M14.1,204.3l-88-81.5l81.1,88.5c0.9,1,2.2,1.7,3.7,1.7c2.7,0,4.9-2.2,4.9-4.9
		C15.8,206.6,15.2,205.2,14.1,204.3z M-84,89L23.6,203.6l0.1,0.1c0.9,0.9,2.1,1.4,3.4,1.4c2.7,0,4.9-2.2,4.9-4.9c0-1-0.3-2-0.9-2.8
		C30.8,196.9-84,89-84,89z M38.4,181.8l-88-81.5l81.1,88.5c0.9,1,2.2,1.7,3.7,1.7c2.7,0,4.9-2.2,4.9-4.9
		C40.1,184,39.4,182.7,38.4,181.8z M-4.1,206.6l-0.2-0.2l-60.8-55.5l55.7,60.6l0.2,0.2c0.6,0.6,1.5,1,2.5,1c2,0,3.6-1.6,3.6-3.6
		C-3.1,208.1-3.5,207.3-4.1,206.6z M-50.9,178.7l24.6,28.1c0.4,0.6,1,1.1,1.8,1.1c1.2,0,2.1-0.9,2.1-2.1c0-0.5-0.2-1-0.5-1.3
		C-23.1,204.4-50.9,178.7-50.9,178.7z"/>
</g>
</svg>
