<?xml version="1.0" encoding="utf-8"?>
<!-- Generator: Adobe Illustrator 19.0.0, SVG Export Plug-In . SVG Version: 6.00 Build 0)  -->
<svg version="1.1" id="Layer_1" xmlns="http://www.w3.org/2000/svg" xmlns:xlink="http://www.w3.org/1999/xlink" x="0px" y="0px"
	 viewBox="-85 87 128 128" style="enable-background:new -85 87 128 128;" xml:space="preserve">
<style type="text/css">
	.st0{fill:#505050;}
</style>
<path class="st0" d="M41.2,87.7c-36.2,0-72.3,0-108.5,0c-5.2,0-10.5,0-15.6,0c-0.3,0-1.1,0.2-1.1,0.2v126H42V88
	C42,87.9,41.6,87.7,41.2,87.7z M28.5,201.7c-32.6,0-65.3,0-97.9,0c-1.6,0-1.6,0-1.6-1.6v-97.8c0-1.6,0-1.2,1.6-1.2h97.8
	c1.6,0,1.6-0.4,1.6,1.3v48.8c0,16.3,0,32.6,0,49C30,201.3,29.7,201.7,28.5,201.7z M-28.2,126.6c-6.7-1.6-13.4-0.8-20.1-0.1
	c-1.4,0.1-1.7,0.8-1.7,2c0,15.2,0,30.4,0,45.6v0.8h9v-17.9c5,0.4,9.6,0.3,14-1.3c7.2-2.6,10.8-8.1,10.4-16.2
	C-16.9,133.1-21,128.3-28.2,126.6z M-30.1,149c-3.2,1.6-6.6,1.5-10,1.1c-0.3,0-0.7-0.5-0.7-0.8c0-5.3,0-10.7,0-16.1
	c3.1-0.5,6.1-0.7,9.1,0c3.7,0.9,5.8,3.3,6.2,6.9C-25.1,144-26.8,147.4-30.1,149z M3.2,156.1c-1.5-0.8-3.1-1.3-4.6-2.1
	c-1.4-0.7-2.8-1.3-4.2-2.1c-0.9-0.5-1.4-1.5-1.4-2.6c0-1.9,1.3-3.4,3.5-3.6c1.6-0.1,3.4,0,5,0.3c1.4,0.3,2.7,0.9,4.1,1.4l1.8-6.3
	c-3.3-1.6-6.7-2.2-10.3-2.1c-3,0.1-5.8,0.9-8.4,2.6c-4.7,3.2-7.1,11.8,0.1,16.4c1.8,1.2,3.9,1.9,5.9,2.8c1.2,0.6,2.5,1.1,3.6,1.8
	c1.5,0.9,1.9,2.3,1.7,3.9c-0.2,1.6-1.3,2.6-2.8,2.9c-1.7,0.3-3.5,0.4-5.1,0.1c-2.3-0.4-4.6-1.3-7-2c-0.4,1.6-0.8,3.3-1.4,5.1
	c-0.3,0.9-0.1,1.4,0.8,1.8c5.6,2.2,11.3,2.7,17.1,0.7c4.3-1.5,6.9-4.5,7.3-9.2C9.1,161.6,7.1,158.2,3.2,156.1z"/>
</svg>
