<?xml version="1.0" encoding="utf-8"?>
<!-- Generator: Adobe Illustrator 19.0.0, SVG Export Plug-In . SVG Version: 6.00 Build 0)  -->
<svg version="1.1" id="Layer_1" xmlns="http://www.w3.org/2000/svg" xmlns:xlink="http://www.w3.org/1999/xlink" x="0px" y="0px"
	 viewBox="-85 87 128 128" style="enable-background:new -85 87 128 128;" xml:space="preserve">
<style type="text/css">
	.st0{fill:#505050;}
</style>
<path class="st0" d="M-35.7,149h29.2C1.6,149,8,142.1,8,134v-27.8C8,98.3,1.4,92.3-6.6,91c-5-0.8-10.2-1.2-15.2-1.2
	s-9.6,0.4-13.8,1.2C-47.9,93.2-50,97.8-50,106.2V117h29v4h-40.2c-8.5,0-15.9,5.1-18.2,14.8c-2.7,11.1-2.8,17.9,0,29.5
	c2.1,8.6,7,14.7,15.5,14.7h9.9v-13C-54,157.3-45.6,149-35.7,149z M-37.5,109.9c-3,0-5.5-2.5-5.5-5.5c0-3.1,2.5-5.6,5.5-5.6
	s5.5,2.5,5.5,5.6C-32,107.4-34.5,109.9-37.5,109.9z M37.3,135.8c-2.1-8.4-6.1-14.8-14.6-14.8H12v13c0,10.1-8.8,18-18.5,18h-29.2
	c-8,0-14.3,7.3-14.3,15.3v27.8c0,7.9,6.7,12.6,14.5,14.8c9.2,2.7,18,3.2,29.1,0C0.9,207.8,8,203.5,8,195.1V184h-29v-4h43.7
	c8.5,0,11.6-5.8,14.6-14.7C40.3,156.2,40.2,147.5,37.3,135.8L37.3,135.8z M-4.7,191.4c3,0,5.5,2.5,5.5,5.5c0,3.1-2.5,5.6-5.5,5.6
	s-5.5-2.5-5.5-5.6C-10.2,193.9-7.7,191.4-4.7,191.4z"/>
</svg>
